<svg xmlns="http://www.w3.org/2000/svg" xmlns:xlink="http://www.w3.org/1999/xlink" contentStyleType="text/css" height="881.4px" preserveAspectRatio="none" style="width:1407px;height:881px;background:#FFFFFF;" version="1.1" viewBox="0 0 1407 881" width="1407.9px" zoomAndPan="magnify"><defs/><g><!--cluster Common Use Cases--><g id="cluster_Common Use Cases"><rect fill="none" height="119.6" rx="3.25" ry="3.25" style="stroke:#181818;stroke-width:1.3;" width="1199.9" x="162.5" y="379.6"/><text fill="#000000" font-family="sans-serif" font-size="18.2" font-weight="bold" lengthAdjust="spacing" textLength="175.9926" x="674.4537" y="401.8396">Common Use Cases</text></g><!--cluster Admin Functions--><g id="cluster_Admin Functions"><rect fill="none" height="122.2" rx="3.25" ry="3.25" style="stroke:#181818;stroke-width:1.3;" width="536.9" x="11.7" y="9.1"/><text fill="#000000" font-family="sans-serif" font-size="18.2" font-weight="bold" lengthAdjust="spacing" textLength="148.6215" x="205.8393" y="31.3396">Admin Functions</text></g><!--cluster Student Functions--><g id="cluster_Student Functions"><rect fill="none" height="115.7" rx="3.25" ry="3.25" style="stroke:#181818;stroke-width:1.3;" width="475.8" x="600.6" y="12.35"/><text fill="#000000" font-family="sans-serif" font-size="18.2" font-weight="bold" lengthAdjust="spacing" textLength="159.7388" x="758.6306" y="34.5896">Student Functions</text></g><!--cluster Teacher Functions--><g id="cluster_Teacher Functions"><rect fill="none" height="122.2" rx="3.25" ry="3.25" style="stroke:#181818;stroke-width:1.3;" width="772.2" x="627.9" y="749.45"/><text fill="#000000" font-family="sans-serif" font-size="18.2" font-weight="bold" lengthAdjust="spacing" textLength="161.8094" x="933.0953" y="771.6896">Teacher Functions</text></g><!--cluster Librarian Functions--><g id="cluster_Librarian Functions"><rect fill="none" height="126.1" rx="3.25" ry="3.25" style="stroke:#181818;stroke-width:1.3;" width="587.6" x="9.1" y="747.5"/><text fill="#000000" font-family="sans-serif" font-size="18.2" font-weight="bold" lengthAdjust="spacing" textLength="169.8785" x="217.9607" y="769.7396">Librarian Functions</text></g><!--cluster Visitor Functions--><g id="cluster_Visitor Functions"><rect fill="none" height="118.3" rx="3.25" ry="3.25" style="stroke:#181818;stroke-width:1.3;" width="254.8" x="1118" y="11.05"/><text fill="#000000" font-family="sans-serif" font-size="18.2" font-weight="bold" lengthAdjust="spacing" textLength="148.6393" x="1171.0804" y="33.2896">Visitor Functions</text></g><g id="elem_Profile"><ellipse cx="444.5857" cy="453.3071" fill="#F1F1F1" rx="112.4357" ry="25.6071" style="stroke:#181818;stroke-width:0.65;"/><text fill="#000000" font-family="sans-serif" font-size="18.2" lengthAdjust="spacing" textLength="162.8758" x="359.2478" y="459.552">Profile Management</text></g><g id="elem_LibrarySearch"><ellipse cx="1245.1658" cy="453.2632" fill="#F1F1F1" rx="95.9658" ry="22.3132" style="stroke:#181818;stroke-width:0.65;"/><text fill="#000000" font-family="sans-serif" font-size="18.2" lengthAdjust="spacing" textLength="118.3533" x="1182.0891" y="459.508">Library Search</text></g><g id="elem_BorrowingRecords"><ellipse cx="994.5758" cy="453.3252" fill="#F1F1F1" rx="109.2758" ry="24.9752" style="stroke:#181818;stroke-width:0.65;"/><text fill="#000000" font-family="sans-serif" font-size="18.2" lengthAdjust="spacing" textLength="154.7622" x="913.2947" y="459.57">Borrowing Records</text></g><g id="elem_Style"><ellipse cx="646.0913" cy="453.2672" fill="#F1F1F1" rx="43.5413" ry="21.0172" style="stroke:#181818;stroke-width:0.65;"/><text fill="#000000" font-family="sans-serif" font-size="18.2" lengthAdjust="spacing" textLength="40.4612" x="625.8541" y="458.206">Style</text></g><g id="elem_EB"><ellipse cx="235.4985" cy="453.3176" fill="#F1F1F1" rx="51.5485" ry="21.0676" style="stroke:#181818;stroke-width:0.65;"/><text fill="#000000" font-family="sans-serif" font-size="18.2" lengthAdjust="spacing" textLength="51.5874" x="207.1253" y="459.1829">E-bike</text></g><g id="elem_Forum"><ellipse cx="788.0792" cy="453.3264" fill="#F1F1F1" rx="52.2792" ry="21.0764" style="stroke:#181818;stroke-width:0.65;"/><text fill="#000000" font-family="sans-serif" font-size="18.2" lengthAdjust="spacing" textLength="52.5827" x="758.9504" y="459.2698">Forum</text></g><g id="elem_User Management"><ellipse cx="140.4915" cy="83.7383" fill="#F1F1F1" rx="107.3415" ry="24.5883" style="stroke:#181818;stroke-width:0.65;"/><text fill="#000000" font-family="sans-serif" font-size="18.2" lengthAdjust="spacing" textLength="149.7146" x="61.7343" y="89.9831">User Management</text></g><g id="elem_System Configuration"><ellipse cx="410.6585" cy="83.6917" fill="#F1F1F1" rx="116.8585" ry="26.4917" style="stroke:#181818;stroke-width:0.65;"/><text fill="#000000" font-family="sans-serif" font-size="18.2" lengthAdjust="spacing" textLength="173.9931" x="319.762" y="89.9365">System Configuration</text></g><g id="elem_Course Register"><ellipse cx="722.6368" cy="83.6874" fill="#F1F1F1" rx="100.5868" ry="23.2374" style="stroke:#181818;stroke-width:0.65;"/><text fill="#000000" font-family="sans-serif" font-size="18.2" lengthAdjust="spacing" textLength="131.4968" x="652.9884" y="89.9322">Course Register</text></g><g id="elem_Grade Inquiry"><ellipse cx="962.2941" cy="84.1688" fill="#F1F1F1" rx="93.2441" ry="21.7688" style="stroke:#181818;stroke-width:0.65;"/><text fill="#000000" font-family="sans-serif" font-size="18.2" lengthAdjust="spacing" textLength="110.2664" x="903.2609" y="90.4136">Grade Inquiry</text></g><g id="elem_Course Management"><ellipse cx="764.5917" cy="824.3683" fill="#F1F1F1" rx="115.2417" ry="26.1683" style="stroke:#181818;stroke-width:0.65;"/><text fill="#000000" font-family="sans-serif" font-size="18.2" lengthAdjust="spacing" textLength="169.9585" x="675.7124" y="830.6132">Course Management</text></g><g id="elem_Student Management"><ellipse cx="1042.4728" cy="824.0446" fill="#F1F1F1" rx="116.8728" ry="26.4946" style="stroke:#181818;stroke-width:0.65;"/><text fill="#000000" font-family="sans-serif" font-size="18.2" lengthAdjust="spacing" textLength="174.0286" x="951.5585" y="830.2894">Student Management</text></g><g id="elem_Grade Entry"><ellipse cx="1291.9583" cy="824.1711" fill="#F1F1F1" rx="86.2083" ry="21.4211" style="stroke:#181818;stroke-width:0.65;"/><text fill="#000000" font-family="sans-serif" font-size="18.2" lengthAdjust="spacing" textLength="98.1183" x="1238.9992" y="830.4159">Grade Entry</text></g><g id="elem_Resource Management"><ellipse cx="452.6052" cy="823.981" fill="#F1F1F1" rx="123.0552" ry="27.731" style="stroke:#181818;stroke-width:0.65;"/><text fill="#000000" font-family="sans-serif" font-size="18.2" lengthAdjust="spacing" textLength="189.1805" x="354.3564" y="830.1549">Resource Management</text></g><g id="elem_User Borrowing Records"><ellipse cx="157.4079" cy="824.0916" fill="#F1F1F1" rx="126.8579" ry="28.4916" style="stroke:#181818;stroke-width:0.65;"/><text fill="#000000" font-family="sans-serif" font-size="18.2" lengthAdjust="spacing" textLength="198.2449" x="55.8859" y="829.8754">User Borrowing Records</text></g><g id="elem_Contact University"><ellipse cx="1245.3656" cy="83.5831" fill="#F1F1F1" rx="106.5656" ry="24.4331" style="stroke:#181818;stroke-width:0.65;"/><text fill="#000000" font-family="sans-serif" font-size="18.2" lengthAdjust="spacing" textLength="147.6706" x="1167.6303" y="89.8279">Contact University</text></g><!--entity Admin--><g id="elem_Admin"><ellipse cx="276.9222" cy="203.45" fill="#F1F1F1" rx="10.4" ry="10.4" style="stroke:#181818;stroke-width:0.65;"/><path d="M276.9222,213.85 L276.9222,248.95 M260.0222,224.25 L293.8222,224.25 M276.9222,248.95 L260.0222,268.45 M276.9222,248.95 L293.8222,268.45 " fill="none" style="stroke:#181818;stroke-width:0.65;"/><text fill="#000000" font-family="sans-serif" font-size="18.2" lengthAdjust="spacing" textLength="172.9444" x="190.45" y="290.0396">System Administrator</text></g><!--entity Visitor--><g id="elem_Visitor"><ellipse cx="1245.3327" cy="203.45" fill="#F1F1F1" rx="10.4" ry="10.4" style="stroke:#181818;stroke-width:0.65;"/><path d="M1245.3327,213.85 L1245.3327,248.95 M1228.4327,224.25 L1262.2327,224.25 M1245.3327,248.95 L1228.4327,268.45 M1245.3327,248.95 L1262.2327,268.45 " fill="none" style="stroke:#181818;stroke-width:0.65;"/><text fill="#000000" font-family="sans-serif" font-size="18.2" lengthAdjust="spacing" textLength="50.5654" x="1220.05" y="290.0396">Visitor</text></g><!--entity Security--><g id="elem_Security"><ellipse cx="294.7769" cy="594.75" fill="#F1F1F1" rx="10.4" ry="10.4" style="stroke:#181818;stroke-width:0.65;"/><path d="M294.7769,605.15 L294.7769,640.25 M277.8769,615.55 L311.6769,615.55 M294.7769,640.25 L277.8769,659.75 M294.7769,640.25 L311.6769,659.75 " fill="none" style="stroke:#181818;stroke-width:0.65;"/><text fill="#000000" font-family="sans-serif" font-size="18.2" lengthAdjust="spacing" textLength="152.7538" x="218.4" y="681.3396">Security Personnel</text></g><!--entity Librarian--><g id="elem_Librarian"><ellipse cx="452.7091" cy="594.75" fill="#F1F1F1" rx="10.4" ry="10.4" style="stroke:#181818;stroke-width:0.65;"/><path d="M452.7091,605.15 L452.7091,640.25 M435.8091,615.55 L469.6091,615.55 M452.7091,640.25 L435.8091,659.75 M452.7091,640.25 L469.6091,659.75 " fill="none" style="stroke:#181818;stroke-width:0.65;"/><text fill="#000000" font-family="sans-serif" font-size="18.2" lengthAdjust="spacing" textLength="70.8183" x="417.3" y="681.3396">Librarian</text></g><!--entity Teacher--><g id="elem_Teacher"><ellipse cx="884.233" cy="594.75" fill="#F1F1F1" rx="10.4" ry="10.4" style="stroke:#181818;stroke-width:0.65;"/><path d="M884.233,605.15 L884.233,640.25 M867.333,615.55 L901.133,615.55 M884.233,640.25 L867.333,659.75 M884.233,640.25 L901.133,659.75 " fill="none" style="stroke:#181818;stroke-width:0.65;"/><text fill="#000000" font-family="sans-serif" font-size="18.2" lengthAdjust="spacing" textLength="66.7659" x="850.85" y="681.3396">Teacher</text></g><!--entity Student--><g id="elem_Student"><ellipse cx="781.4701" cy="203.45" fill="#F1F1F1" rx="10.4" ry="10.4" style="stroke:#181818;stroke-width:0.65;"/><path d="M781.4701,213.85 L781.4701,248.95 M764.5701,224.25 L798.3701,224.25 M781.4701,248.95 L764.5701,268.45 M781.4701,248.95 L798.3701,268.45 " fill="none" style="stroke:#181818;stroke-width:0.65;"/><text fill="#000000" font-family="sans-serif" font-size="18.2" lengthAdjust="spacing" textLength="62.7402" x="750.1" y="290.0396">Student</text></g><!--reverse link User Management to Admin--><g id="link_User Management_Admin"><path d="M165.6481,114.2471 C184.7061,136.2171 208.845,164.021 233.246,192.14 " fill="none" id="User Management-backto-Admin" style="stroke:#181818;stroke-width:1.3;"/><polygon fill="#181818" points="160.537,108.355,164.2756,120.6005,164.7963,113.2651,172.1317,113.7857,160.537,108.355" style="stroke:#181818;stroke-width:1.3;"/></g><!--reverse link System Configuration to Admin--><g id="link_System Configuration_Admin"><path d="M384.5284,116.0107 C365.7954,138.0197 342.979,164.827 319.631,192.244 " fill="none" id="System Configuration-backto-Admin" style="stroke:#181818;stroke-width:1.3;"/><polygon fill="#181818" points="389.584,110.071,378.0407,115.6102,385.371,115.0208,385.9604,122.351,389.584,110.071" style="stroke:#181818;stroke-width:1.3;"/></g><!--reverse link Course Register to Student--><g id="link_Course Register_Student"><path d="M733.7762,114.6639 C741.9402,136.5949 751.972,163.605 762.593,192.153 " fill="none" id="Course Register-backto-Student" style="stroke:#181818;stroke-width:1.3;"/><polygon fill="#181818" points="731.055,107.354,730.2635,120.133,733.3227,113.4456,740.0101,116.5048,731.055,107.354" style="stroke:#181818;stroke-width:1.3;"/></g><!--reverse link Grade Inquiry to Student--><g id="link_Grade Inquiry_Student"><path d="M933.6003,109.8747 C901.6203,137.7077 848.809,183.677 812.604,215.189 " fill="none" id="Grade Inquiry-backto-Student" style="stroke:#181818;stroke-width:1.3;"/><polygon fill="#181818" points="939.484,104.754,927.2446,108.5126,934.5809,109.0213,934.0723,116.3576,939.484,104.754" style="stroke:#181818;stroke-width:1.3;"/></g><!--link Student to LibrarySearch--><g id="link_Student_LibrarySearch"><path d="M812.981,253.37 C875.264,270.387 1017.159,312.39 1127.1,369.2 C1161.589,387.023 1191.5404,408.7153 1214.6544,426.8503 " fill="none" id="Student-to-LibrarySearch" style="stroke:#181818;stroke-width:1.3;"/><polygon fill="#181818" points="1220.791,431.665,1214.7959,420.3518,1215.6771,427.6527,1208.3762,428.534,1220.791,431.665" style="stroke:#181818;stroke-width:1.3;"/></g><!--link Student to BorrowingRecords--><g id="link_Student_BorrowingRecords"><path d="M812.76,275.548 C855.842,317.33 926.6702,385.9732 965.2282,423.3742 " fill="none" id="Student-to-BorrowingRecords" style="stroke:#181818;stroke-width:1.3;"/><polygon fill="#181818" points="970.827,428.805,966.0493,416.9263,966.1613,424.2793,958.8083,424.3913,970.827,428.805" style="stroke:#181818;stroke-width:1.3;"/></g><!--link Student to Profile--><g id="link_Student_Profile"><path d="M749.619,264.498 C687.089,302.887 554.7278,384.1519 488.1548,425.0109 " fill="none" id="Student-to-Profile" style="stroke:#181818;stroke-width:1.3;"/><polygon fill="#181818" points="481.507,429.091,494.1987,427.4028,487.0468,425.6909,488.7586,418.539,481.507,429.091" style="stroke:#181818;stroke-width:1.3;"/></g><!--link Student to Forum--><g id="link_Student_Forum"><path d="M782.886,295.62 C784.277,339.599 785.9564,393.2148 786.9314,424.2848 " fill="none" id="Student-to-Forum" style="stroke:#181818;stroke-width:1.3;"/><polygon fill="#181818" points="787.176,432.081,792.0065,420.2237,786.9721,425.5842,781.6116,420.5499,787.176,432.081" style="stroke:#181818;stroke-width:1.3;"/></g><!--link Student to EB--><g id="link_Student_EB"><path d="M749.645,247.143 C670.02,253.643 457.249,278.902 309.4,369.2 C282.932,385.359 264.885,407.4221 251.833,426.3371 " fill="none" id="Student-to-EB" style="stroke:#181818;stroke-width:1.3;"/><polygon fill="#181818" points="247.403,432.757,258.3279,426.0804,251.0946,427.4071,249.768,420.1738,247.403,432.757" style="stroke:#181818;stroke-width:1.3;"/><text fill="#000000" font-family="sans-serif" font-size="16.9" lengthAdjust="spacing" textLength="62.9294" x="367.9" y="353.6368">Register</text></g><!--link Student to Style--><g id="link_Student_Style"><path d="M749.944,292.994 C720.928,337.35 683.5193,394.5352 662.9013,426.0602 " fill="none" id="Student-to-Style" style="stroke:#181818;stroke-width:1.3;"/><polygon fill="#181818" points="658.632,432.588,669.3879,425.6425,662.1898,427.1481,660.6841,419.95,658.632,432.588" style="stroke:#181818;stroke-width:1.3;"/></g><!--link Teacher to Course Management--><g id="link_Teacher_Course Management"><path d="M851.63,686.829 C828.529,722.878 802.6559,763.228 784.5339,791.503 " fill="none" id="Teacher-to-Course Management" style="stroke:#181818;stroke-width:1.3;"/><polygon fill="#181818" points="780.325,798.07,791.0163,791.0255,783.8324,792.5975,782.2604,785.4136,780.325,798.07" style="stroke:#181818;stroke-width:1.3;"/></g><!--link Teacher to Student Management--><g id="link_Teacher_Student Management"><path d="M917.254,675.454 C948.493,712.205 989.2928,760.1855 1016.0078,791.6195 " fill="none" id="Teacher-to-Student Management" style="stroke:#181818;stroke-width:1.3;"/><polygon fill="#181818" points="1021.059,797.563,1017.4445,785.2803,1016.8496,792.6101,1009.5198,792.0153,1021.059,797.563" style="stroke:#181818;stroke-width:1.3;"/></g><!--reverse link LibrarySearch to Teacher--><g id="link_LibrarySearch_Teacher"><path d="M1200.0763,476.8498 C1128.8623,512.1968 984.308,583.96 917.189,617.279 " fill="none" id="LibrarySearch-backto-Teacher" style="stroke:#181818;stroke-width:1.3;"/><polygon fill="#181818" points="1207.063,473.382,1194.271,473.926,1201.2407,476.2719,1198.8948,483.2416,1207.063,473.382" style="stroke:#181818;stroke-width:1.3;"/></g><!--reverse link BorrowingRecords to Teacher--><g id="link_BorrowingRecords_Teacher"><path d="M975.9653,484.4426 C959.5203,511.1316 936.286,548.86 914.979,583.466 " fill="none" id="BorrowingRecords-backto-Teacher" style="stroke:#181818;stroke-width:1.3;"/><polygon fill="#181818" points="980.057,477.802,969.4923,485.0351,976.6472,483.3358,978.3464,490.4907,980.057,477.802" style="stroke:#181818;stroke-width:1.3;"/></g><!--reverse link Profile to Teacher--><g id="link_Profile_Teacher"><path d="M503.8203,478.5559 C528.9493,488.8259 552.331,498.381 579.8,509.6 C678.288,549.822 794.729,597.324 850.694,620.165 " fill="none" id="Profile-backto-Teacher" style="stroke:#181818;stroke-width:1.3;"/><polygon fill="#181818" points="496.6,475.605,505.4632,484.8448,502.6169,478.0641,509.3977,475.2178,496.6,475.605" style="stroke:#181818;stroke-width:1.3;"/></g><!--link Teacher to Grade Entry--><g id="link_Teacher_Grade Entry"><path d="M917.358,643.643 C974.246,656.916 1092.65,688.272 1183,737.1 C1216.722,755.326 1244.9227,778.7524 1265.8137,797.8624 " fill="none" id="Teacher-to-Grade Entry" style="stroke:#181818;stroke-width:1.3;"/><polygon fill="#181818" points="1271.569,803.127,1266.4458,791.3932,1266.7729,798.7398,1259.4263,799.0669,1271.569,803.127" style="stroke:#181818;stroke-width:1.3;"/></g><!--reverse link Forum to Teacher--><g id="link_Forum_Teacher"><path d="M801.7833,480.4244 C815.7453,506.4504 837.486,547.014 857.077,583.544 " fill="none" id="Forum-backto-Teacher" style="stroke:#181818;stroke-width:1.3;"/><polygon fill="#181818" points="798.096,473.551,799.0447,486.3193,801.1688,479.2788,808.2093,481.4029,798.096,473.551" style="stroke:#181818;stroke-width:1.3;"/></g><!--reverse link Style to Teacher--><g id="link_Style_Teacher"><path d="M671.0732,477.3207 C684.1122,488.8777 696.267,498.602 713.7,509.6 C722.878,515.385 726.531,514.358 735.8,520 C777.621,545.48 821.665,580.476 850.759,604.903 " fill="none" id="Style-backto-Teacher" style="stroke:#181818;stroke-width:1.3;"/><polygon fill="#181818" points="665.236,472.147,670.5426,483.799,670.1003,476.4584,677.4409,476.0161,665.236,472.147" style="stroke:#181818;stroke-width:1.3;"/></g><!--link Librarian to Resource Management--><g id="link_Librarian_Resource Management"><path d="M452.4,686.829 C452.4,722.007 452.4,759.759 452.4,788.203 " fill="none" id="Librarian-to-Resource Management" style="stroke:#181818;stroke-width:1.3;"/><polygon fill="#181818" points="452.4,796.003,457.6,784.303,452.4,789.503,447.2,784.303,452.4,796.003" style="stroke:#181818;stroke-width:1.3;"/></g><!--link Librarian to User Borrowing Records--><g id="link_Librarian_User Borrowing Records"><path d="M416.975,669.253 C409.968,675.22 402.506,681.187 395.2,686.4 C395.2,686.4 277.7242,753.7968 208.8112,793.3428 " fill="none" id="Librarian-to-User Borrowing Records" style="stroke:#181818;stroke-width:1.3;"/><polygon fill="#181818" points="202.046,797.225,214.782,795.9118,207.6837,793.9898,209.6057,786.8915,202.046,797.225" style="stroke:#181818;stroke-width:1.3;"/></g><!--reverse link Profile to Librarian--><g id="link_Profile_Librarian"><path d="M445.9897,486.3357 C447.1467,513.1157 448.721,549.237 450.216,583.518 " fill="none" id="Profile-backto-Librarian" style="stroke:#181818;stroke-width:1.3;"/><polygon fill="#181818" points="445.653,478.543,440.9629,490.4565,445.9336,485.0369,451.3532,490.0076,445.653,478.543" style="stroke:#181818;stroke-width:1.3;"/></g><!--reverse link Style to Librarian--><g id="link_Style_Librarian"><path d="M623.9705,478.1895 C606.5375,496.7925 583.57,520.637 557.7,544.7 C535.08,565.734 508.521,588.185 487.734,605.28 " fill="none" id="Style-backto-Librarian" style="stroke:#181818;stroke-width:1.3;"/><polygon fill="#181818" points="629.304,472.498,617.5093,477.4796,624.8594,477.2409,625.098,484.591,629.304,472.498" style="stroke:#181818;stroke-width:1.3;"/></g><!--reverse link EB to Security--><g id="link_EB_Security"><path d="M239.034,481.7992 C241.79,500.3372 245.7,520.988 253.5,544.7 C257.712,557.505 263.289,570.882 268.983,583.271 " fill="none" id="EB-backto-Security" style="stroke:#181818;stroke-width:1.3;"/><polygon fill="#181818" points="237.887,474.084,234.464,486.4215,238.8428,480.5133,244.751,484.8921,237.887,474.084" style="stroke:#181818;stroke-width:1.3;"/><text fill="#000000" font-family="sans-serif" font-size="16.9" lengthAdjust="spacing" textLength="98.6438" x="254.8" y="539.5368">Management</text></g><!--reverse link Profile to Security--><g id="link_Profile_Security"><path d="M419.755,484.1706 C397.434,510.9506 365.56,549.198 336.83,583.674 " fill="none" id="Profile-backto-Security" style="stroke:#181818;stroke-width:1.3;"/><polygon fill="#181818" points="424.749,478.179,413.2636,483.8371,420.5873,483.172,421.2524,490.4958,424.749,478.179" style="stroke:#181818;stroke-width:1.3;"/></g><!--reverse link Style to Security--><g id="link_Style_Security"><path d="M622.4968,477.4171 C609.8218,489.2471 597.649,499.161 579.8,509.6 C568.594,516.152 564.59,515.255 552.5,520 C482.3,547.586 463.944,552.656 395.2,583.7 C387.582,587.145 379.704,590.837 371.865,594.607 " fill="none" id="Style-backto-Security" style="stroke:#181818;stroke-width:1.3;"/><polygon fill="#181818" points="628.199,472.095,616.0976,476.2766,623.4471,476.5301,623.1937,483.8796,628.199,472.095" style="stroke:#181818;stroke-width:1.3;"/></g><!--link Visitor to LibrarySearch--><g id="link_Visitor_LibrarySearch"><path d="M1245.4,295.62 C1245.4,338.884 1245.4,391.222 1245.4,422.734 " fill="none" id="Visitor-to-LibrarySearch" style="stroke:#181818;stroke-width:1.3;"/><polygon fill="#181818" points="1245.4,430.534,1250.6,418.834,1245.4,424.034,1240.2,418.834,1245.4,430.534" style="stroke:#181818;stroke-width:1.3;"/></g><!--reverse link Contact University to Visitor--><g id="link_Contact University_Visitor"><path d="M1245.4,116.493 C1245.4,138.528 1245.4,164.333 1245.4,192.361 " fill="none" id="Contact University-backto-Visitor" style="stroke:#181818;stroke-width:1.3;"/><polygon fill="#181818" points="1245.4,108.693,1240.2,120.393,1245.4,115.193,1250.6,120.393,1245.4,108.693" style="stroke:#181818;stroke-width:1.3;"/></g><!--SRC=[TLJBJiCm4BpdAwoUoA4_m069LYr20WcrbBkRR8D5iuQrGnKX_XqtQxkD7N9oPiRxcBKjAwj9pBQziT2A-xfLg8mbwT2Pa8QHGhBgJHaL2ByEr1QgZfJjnGkGqOXm75G13h8djIT9IkB0nhz0luAite4J-7LCOBiQq79KNXS5GMKbDaSGiwLkMurYPq0ifG4p4p-5SD_D2-c3SefdYRA1rkqhpp4yp1ekf7VbIghUoqjjFIEiMcWYVLBOY0rKccep22FgGTPkRN-4aeljGvhLVAy-65qj65fhwje16LR5xwYfmNsnxh2oIcFiYU5vzpc_4pUkOxfkBbVuuIur7bJJkTcwM6MIoLkQvmg4ZxNK7JcBDz2uOm9KJcaUIDOW7l6hKzGdYbgVq6boTrF5fAsfw7g8AST-JZ6hnMriO5B08niRv8zZRb0WmkPWKJgIJ1Uo_YiStCoT6lEJFeqbrovbLV2mLcZ3gCPxBowEyIcBudNEJRfGCV46Z3EgoesQq0vdFBz-gJphDkLYrKLyhvWu7ubB7IaRGYOmHnjPu5_5t810_7y1eY9SDBJkwHCxLD_kINLPtPNz0m00]--></g></svg>