<svg xmlns="http://www.w3.org/2000/svg" xmlns:xlink="http://www.w3.org/1999/xlink" contentStyleType="text/css" height="641px" preserveAspectRatio="none" style="width:2393px;height:641px;background:#FFFFFF;" version="1.1" viewBox="0 0 2393 641" width="2393px" zoomAndPan="magnify"><defs/><g><!--cluster Common Use Cases--><g id="cluster_Common Use Cases"><rect fill="none" height="101" rx="2.5" ry="2.5" style="stroke:#181818;stroke-width:1.0;" width="679" x="414" y="283"/><text fill="#000000" font-family="sans-serif" font-size="14" font-weight="bold" lengthAdjust="spacing" textLength="135.3789" x="685.8105" y="300.1074">Common Use Cases</text></g><!--cluster Security Functions--><g id="cluster_Security Functions"><rect fill="none" height="100" rx="2.5" ry="2.5" style="stroke:#181818;stroke-width:1.0;" width="628" x="7" y="21"/><text fill="#000000" font-family="sans-serif" font-size="14" font-weight="bold" lengthAdjust="spacing" textLength="126.0205" x="257.9897" y="38.1074">Security Functions</text></g><!--cluster Admin Functions--><g id="cluster_Admin Functions"><rect fill="none" height="128" rx="2.5" ry="2.5" style="stroke:#181818;stroke-width:1.0;" width="1277" x="659" y="7"/><text fill="#000000" font-family="sans-serif" font-size="14" font-weight="bold" lengthAdjust="spacing" textLength="114.3242" x="1240.3379" y="24.1074">Admin Functions</text></g><!--cluster Librarian Functions--><g id="cluster_Librarian Functions"><rect fill="none" height="97" rx="2.5" ry="2.5" style="stroke:#181818;stroke-width:1.0;" width="871" x="1335" y="534"/><text fill="#000000" font-family="sans-serif" font-size="14" font-weight="bold" lengthAdjust="spacing" textLength="130.6758" x="1705.1621" y="551.1074">Librarian Functions</text></g><!--cluster Teacher Functions--><g id="cluster_Teacher Functions"><rect fill="none" height="105" rx="2.5" ry="2.5" style="stroke:#181818;stroke-width:1.0;" width="1295" x="16" y="530"/><text fill="#000000" font-family="sans-serif" font-size="14" font-weight="bold" lengthAdjust="spacing" textLength="124.4688" x="601.2656" y="547.1074">Teacher Functions</text></g><!--cluster Student Functions--><g id="cluster_Student Functions"><rect fill="none" height="86" rx="2.5" ry="2.5" style="stroke:#181818;stroke-width:1.0;" width="176" x="214" y="290.5"/><text fill="#000000" font-family="sans-serif" font-size="14" font-weight="bold" lengthAdjust="spacing" textLength="122.876" x="240.562" y="307.6074">Student Functions</text></g><!--cluster Visitor Functions--><g id="cluster_Visitor Functions"><rect fill="none" height="96" rx="2.5" ry="2.5" style="stroke:#181818;stroke-width:1.0;" width="791" x="1596" y="162"/><text fill="#000000" font-family="sans-serif" font-size="14" font-weight="bold" lengthAdjust="spacing" textLength="114.3379" x="1934.3311" y="179.1074">Visitor Functions</text></g><g id="elem_Announcement"><ellipse cx="981.844" cy="343.7688" fill="#F1F1F1" rx="94.344" ry="21.2688" style="stroke:#181818;stroke-width:0.5;"/><text fill="#000000" font-family="sans-serif" font-size="14" lengthAdjust="spacing" textLength="144.7646" x="906.5381" y="348.5502">Announcement Posting</text></g><g id="elem_Profile"><ellipse cx="765.989" cy="344.1978" fill="#F1F1F1" rx="86.489" ry="19.6978" style="stroke:#181818;stroke-width:0.5;"/><text fill="#000000" font-family="sans-serif" font-size="14" lengthAdjust="spacing" textLength="125.2891" x="700.3445" y="349.0015">Profile Management</text></g><g id="elem_EV"><ellipse cx="537.1331" cy="343.8266" fill="#F1F1F1" rx="107.1331" ry="23.8266" style="stroke:#181818;stroke-width:0.5;"/><text fill="#000000" font-family="sans-serif" font-size="14" lengthAdjust="spacing" textLength="174.2959" x="449.9851" y="347.6235">Electric Vehicle Registration</text></g><g id="elem_Patrol Records"><ellipse cx="97.8537" cy="81.2707" fill="#F1F1F1" rx="74.3537" ry="17.2707" style="stroke:#181818;stroke-width:0.5;"/><text fill="#000000" font-family="sans-serif" font-size="14" lengthAdjust="spacing" textLength="92.5928" x="48.5573" y="86.0744">Patrol Records</text></g><g id="elem_Emergency Contact Access"><ellipse cx="314.0888" cy="81.6178" fill="#F1F1F1" rx="106.0888" ry="23.6178" style="stroke:#181818;stroke-width:0.5;"/><text fill="#000000" font-family="sans-serif" font-size="14" lengthAdjust="spacing" textLength="171.958" x="228.1098" y="85.4146">Emergency Contact Access</text></g><g id="elem_Violation Handling"><ellipse cx="537.1944" cy="81.7389" fill="#F1F1F1" rx="81.6944" ry="18.7389" style="stroke:#181818;stroke-width:0.5;"/><text fill="#000000" font-family="sans-serif" font-size="14" lengthAdjust="spacing" textLength="112.8545" x="477.7671" y="86.5426">Violation Handling</text></g><g id="elem_User Management"><ellipse cx="1390.0704" cy="81.4141" fill="#F1F1F1" rx="82.5704" ry="18.9141" style="stroke:#181818;stroke-width:0.5;"/><text fill="#000000" font-family="sans-serif" font-size="14" lengthAdjust="spacing" textLength="115.165" x="1329.4879" y="86.2178">User Management</text></g><g id="elem_Permission Management"><ellipse cx="1606.0855" cy="81.6171" fill="#F1F1F1" rx="98.5855" ry="22.1171" style="stroke:#181818;stroke-width:0.5;"/><text fill="#000000" font-family="sans-serif" font-size="14" lengthAdjust="spacing" textLength="154.8477" x="1527.1289" y="85.9633">Permission Management</text></g><g id="elem_System Configuration"><ellipse cx="1829.8912" cy="81.3782" fill="#F1F1F1" rx="89.8912" ry="20.3782" style="stroke:#181818;stroke-width:0.5;"/><text fill="#000000" font-family="sans-serif" font-size="14" lengthAdjust="spacing" textLength="133.8408" x="1759.9707" y="86.1819">System Configuration</text></g><g id="elem_Data Backup and Recovery"><ellipse cx="780.9062" cy="81.4812" fill="#F1F1F1" rx="105.4062" ry="23.4812" style="stroke:#181818;stroke-width:0.5;"/><text fill="#000000" font-family="sans-serif" font-size="14" lengthAdjust="spacing" textLength="170.4268" x="695.6929" y="85.2781">Data Backup and Recovery</text></g><g id="elem_Electric Vehicle Management System Configuration"><ellipse cx="1096.9419" cy="81.3884" fill="#F1F1F1" rx="174.9419" ry="37.3884" style="stroke:#181818;stroke-width:0.5;"/><text fill="#000000" font-family="sans-serif" font-size="14" lengthAdjust="spacing" textLength="319.04" x="937.4219" y="85.1853">Electric Vehicle Management System Configuration</text></g><g id="elem_Resource Management"><ellipse cx="2095.1578" cy="592.8316" fill="#F1F1F1" rx="94.6578" ry="21.3316" style="stroke:#181818;stroke-width:0.5;"/><text fill="#000000" font-family="sans-serif" font-size="14" lengthAdjust="spacing" textLength="145.5234" x="2019.5818" y="597.5807">Resource Management</text></g><g id="elem_Borrowing Management"><ellipse cx="1868.9537" cy="593.0907" fill="#F1F1F1" rx="95.9537" ry="21.5907" style="stroke:#181818;stroke-width:0.5;"/><text fill="#000000" font-family="sans-serif" font-size="14" lengthAdjust="spacing" textLength="148.6338" x="1792.2623" y="597.7069">Borrowing Management</text></g><g id="elem_Inventory Inquiry"><ellipse cx="1660.2234" cy="593.0447" fill="#F1F1F1" rx="78.2234" ry="18.0447" style="stroke:#181818;stroke-width:0.5;"/><text fill="#000000" font-family="sans-serif" font-size="14" lengthAdjust="spacing" textLength="103.4961" x="1605.4753" y="597.8484">Inventory Inquiry</text></g><g id="elem_User Borrowing Records"><ellipse cx="1449.083" cy="592.9166" fill="#F1F1F1" rx="97.583" ry="21.9166" style="stroke:#181818;stroke-width:0.5;"/><text fill="#000000" font-family="sans-serif" font-size="14" lengthAdjust="spacing" textLength="152.4961" x="1370.9892" y="597.3657">User Borrowing Records</text></g><g id="elem_Course Management"><ellipse cx="316.1474" cy="593.1295" fill="#F1F1F1" rx="88.6474" ry="20.1295" style="stroke:#181818;stroke-width:0.5;"/><text fill="#000000" font-family="sans-serif" font-size="14" lengthAdjust="spacing" textLength="130.7373" x="247.7788" y="597.9332">Course Management</text></g><g id="elem_Student Management"><ellipse cx="765.9022" cy="592.8804" fill="#F1F1F1" rx="89.9022" ry="20.3804" style="stroke:#181818;stroke-width:0.5;"/><text fill="#000000" font-family="sans-serif" font-size="14" lengthAdjust="spacing" textLength="133.8682" x="695.9681" y="597.6841">Student Management</text></g><g id="elem_Assignment Management"><ellipse cx="539.7663" cy="592.9533" fill="#F1F1F1" rx="100.2663" ry="22.4533" style="stroke:#181818;stroke-width:0.5;"/><text fill="#000000" font-family="sans-serif" font-size="14" lengthAdjust="spacing" textLength="158.751" x="459.3631" y="597.1271">Assignment Management</text></g><g id="elem_Resource Access"><ellipse cx="112.2235" cy="592.9447" fill="#F1F1F1" rx="80.2235" ry="18.4447" style="stroke:#181818;stroke-width:0.5;"/><text fill="#000000" font-family="sans-serif" font-size="14" lengthAdjust="spacing" textLength="108.9307" x="54.7582" y="597.7484">Resource Access</text></g><g id="elem_Grade Entry"><ellipse cx="1227.8141" cy="592.9778" fill="#F1F1F1" rx="66.3141" ry="16.4778" style="stroke:#181818;stroke-width:0.5;"/><text fill="#000000" font-family="sans-serif" font-size="14" lengthAdjust="spacing" textLength="75.4756" x="1187.0763" y="597.7815">Grade Entry</text></g><g id="elem_Discussion Forum Management"><ellipse cx="1009.1897" cy="592.9379" fill="#F1F1F1" rx="117.6897" ry="25.9379" style="stroke:#181818;stroke-width:0.5;"/><text fill="#000000" font-family="sans-serif" font-size="14" lengthAdjust="spacing" textLength="197.6338" x="910.3729" y="596.7348">Discussion Forum Management</text></g><g id="elem_Grade Inquiry"><ellipse cx="302.2262" cy="344.2452" fill="#F1F1F1" rx="71.7262" ry="16.7452" style="stroke:#181818;stroke-width:0.5;"/><text fill="#000000" font-family="sans-serif" font-size="14" lengthAdjust="spacing" textLength="84.8203" x="256.8161" y="349.049">Grade Inquiry</text></g><g id="elem_Information Access"><ellipse cx="2287.0583" cy="220.7117" fill="#F1F1F1" rx="84.0583" ry="19.2117" style="stroke:#181818;stroke-width:0.5;"/><text fill="#000000" font-family="sans-serif" font-size="14" lengthAdjust="spacing" textLength="119.0479" x="2224.5344" y="225.5154">Information Access</text></g><g id="elem_Resource Browsing"><ellipse cx="2082.9634" cy="220.3927" fill="#F1F1F1" rx="84.9634" ry="19.3927" style="stroke:#181818;stroke-width:0.5;"/><text fill="#000000" font-family="sans-serif" font-size="14" lengthAdjust="spacing" textLength="121.3857" x="2019.2705" y="225.1964">Resource Browsing</text></g><g id="elem_Registration Information"><ellipse cx="1866.9508" cy="220.5902" fill="#F1F1F1" rx="95.9508" ry="21.5902" style="stroke:#181818;stroke-width:0.5;"/><text fill="#000000" font-family="sans-serif" font-size="14" lengthAdjust="spacing" textLength="148.627" x="1790.2619" y="225.2067">Registration Information</text></g><g id="elem_Contact Us"><ellipse cx="1674.1694" cy="220.4463" fill="#F1F1F1" rx="61.6694" ry="16.4463" style="stroke:#181818;stroke-width:0.5;"/><text fill="#000000" font-family="sans-serif" font-size="14" lengthAdjust="spacing" textLength="69.248" x="1636.5454" y="225.2501">Contact Us</text></g><!--entity Admin--><g id="elem_Admin"><ellipse cx="1097.0171" cy="189.5" fill="#F1F1F1" rx="8" ry="8" style="stroke:#181818;stroke-width:0.5;"/><path d="M1097.0171,197.5 L1097.0171,224.5 M1084.0171,205.5 L1110.0171,205.5 M1097.0171,224.5 L1084.0171,239.5 M1097.0171,224.5 L1110.0171,239.5 " fill="none" style="stroke:#181818;stroke-width:0.5;"/><text fill="#000000" font-family="sans-serif" font-size="14" lengthAdjust="spacing" textLength="133.0342" x="1030.5" y="256.1074">System Administrator</text></g><!--entity Visitor--><g id="elem_Visitor"><ellipse cx="1974.9482" cy="50.5" fill="#F1F1F1" rx="8" ry="8" style="stroke:#181818;stroke-width:0.5;"/><path d="M1974.9482,58.5 L1974.9482,85.5 M1961.9482,66.5 L1987.9482,66.5 M1974.9482,85.5 L1961.9482,100.5 M1974.9482,85.5 L1987.9482,100.5 " fill="none" style="stroke:#181818;stroke-width:0.5;"/><text fill="#000000" font-family="sans-serif" font-size="14" lengthAdjust="spacing" textLength="38.8965" x="1955.5" y="117.1074">Visitor</text></g><!--entity Security--><g id="elem_Security"><ellipse cx="536.7515" cy="189.5" fill="#F1F1F1" rx="8" ry="8" style="stroke:#181818;stroke-width:0.5;"/><path d="M536.7515,197.5 L536.7515,224.5 M523.7515,205.5 L549.7515,205.5 M536.7515,224.5 L523.7515,239.5 M536.7515,224.5 L549.7515,239.5 " fill="none" style="stroke:#181818;stroke-width:0.5;"/><text fill="#000000" font-family="sans-serif" font-size="14" lengthAdjust="spacing" textLength="117.5029" x="478" y="256.1074">Security Personnel</text></g><!--entity Librarian--><g id="elem_Librarian"><ellipse cx="1554.2378" cy="436.5" fill="#F1F1F1" rx="8" ry="8" style="stroke:#181818;stroke-width:0.5;"/><path d="M1554.2378,444.5 L1554.2378,471.5 M1541.2378,452.5 L1567.2378,452.5 M1554.2378,471.5 L1541.2378,486.5 M1554.2378,471.5 L1567.2378,486.5 " fill="none" style="stroke:#181818;stroke-width:0.5;"/><text fill="#000000" font-family="sans-serif" font-size="14" lengthAdjust="spacing" textLength="54.4756" x="1527" y="503.1074">Librarian</text></g><!--entity Teacher--><g id="elem_Teacher"><ellipse cx="766.1792" cy="436.5" fill="#F1F1F1" rx="8" ry="8" style="stroke:#181818;stroke-width:0.5;"/><path d="M766.1792,444.5 L766.1792,471.5 M753.1792,452.5 L779.1792,452.5 M766.1792,471.5 L753.1792,486.5 M766.1792,471.5 L779.1792,486.5 " fill="none" style="stroke:#181818;stroke-width:0.5;"/><text fill="#000000" font-family="sans-serif" font-size="14" lengthAdjust="spacing" textLength="51.3584" x="740.5" y="503.1074">Teacher</text></g><!--entity Student--><g id="elem_Student"><ellipse cx="316.1309" cy="436.5" fill="#F1F1F1" rx="8" ry="8" style="stroke:#181818;stroke-width:0.5;"/><path d="M316.1309,444.5 L316.1309,471.5 M303.1309,452.5 L329.1309,452.5 M316.1309,471.5 L303.1309,486.5 M316.1309,471.5 L329.1309,486.5 " fill="none" style="stroke:#181818;stroke-width:0.5;"/><text fill="#000000" font-family="sans-serif" font-size="14" lengthAdjust="spacing" textLength="48.2617" x="292" y="503.1074">Student</text></g><!--reverse link Patrol Records to Security--><g id="link_Patrol Records_Security"><path d="M122.361,102.1444 C140.201,115.9044 163.05,131.63 190,143 C286.34,183.66 407.22,204.01 477.92,213.13 " fill="none" id="Patrol Records-backto-Security" style="stroke:#181818;stroke-width:1.0;"/><polygon fill="#181818" points="117.61,98.48,122.2935,107.144,121.5692,101.5337,127.1794,100.8093,117.61,98.48" style="stroke:#181818;stroke-width:1.0;"/></g><!--reverse link Emergency Contact Access to Security--><g id="link_Emergency Contact Access_Security"><path d="M353.9531,107.0494 C388.3831,128.1894 436.58,157.81 477.68,183.06 " fill="none" id="Emergency Contact Access-backto-Security" style="stroke:#181818;stroke-width:1.0;"/><polygon fill="#181818" points="348.84,103.91,354.4167,112.0279,353.1009,106.5262,358.6026,105.2104,348.84,103.91" style="stroke:#181818;stroke-width:1.0;"/></g><!--link Security to Announcement--><g id="link_Security_Announcement"><path d="M596.18,224.14 C664.14,228.72 778.09,241.19 870,275 C901.6,286.62 929.2085,304.0413 951.0085,319.6213 " fill="none" id="Security-to-Announcement" style="stroke:#181818;stroke-width:1.0;"/><polygon fill="#181818" points="955.89,323.11,950.8936,314.6226,951.8221,320.2028,946.242,321.1313,955.89,323.11" style="stroke:#181818;stroke-width:1.0;"/></g><!--reverse link EV to Security--><g id="link_EV_Security"><path d="M537,313.77 C537,296.97 537,279.86 537,260.28 " fill="none" id="EV-backto-Security" style="stroke:#181818;stroke-width:1.0;"/><polygon fill="#181818" points="537,319.77,541,310.77,537,314.77,533,310.77,537,319.77" style="stroke:#181818;stroke-width:1.0;"/></g><!--reverse link Violation Handling to Security--><g id="link_Violation Handling_Security"><path d="M537,106.13 C537,126.44 537,154.41 537,180.93 " fill="none" id="Violation Handling-backto-Security" style="stroke:#181818;stroke-width:1.0;"/><polygon fill="#181818" points="537,100.13,533,109.13,537,105.13,541,109.13,537,100.13" style="stroke:#181818;stroke-width:1.0;"/></g><!--link Security to Profile--><g id="link_Security_Profile"><path d="M596.18,244.34 C617.33,253.15 641.09,263.8 662,275 C690.33,290.18 716.0161,307.2628 736.6261,321.7928 " fill="none" id="Security-to-Profile" style="stroke:#181818;stroke-width:1.0;"/><polygon fill="#181818" points="741.53,325.25,736.479,316.795,737.4435,322.369,731.8694,323.3334,741.53,325.25" style="stroke:#181818;stroke-width:1.0;"/></g><!--reverse link User Management to Admin--><g id="link_User Management_Admin"><path d="M1359.3151,102.9134 C1339.5051,115.7534 1316.17,130.01 1290,143 C1249.16,163.27 1201.56,182.19 1163.84,196.14 " fill="none" id="User Management-backto-Admin" style="stroke:#181818;stroke-width:1.0;"/><polygon fill="#181818" points="1364.35,99.65,1354.6221,101.1885,1360.1543,102.3695,1358.9733,107.9017,1364.35,99.65" style="stroke:#181818;stroke-width:1.0;"/></g><!--reverse link Permission Management to Admin--><g id="link_Permission Management_Admin"><path d="M1568.9547,105.3658 C1546.2647,118.6758 1519.8,132.58 1490,143 C1378.95,181.84 1242.96,202.76 1163.55,212.48 " fill="none" id="Permission Management-backto-Admin" style="stroke:#181818;stroke-width:1.0;"/><polygon fill="#181818" points="1574.13,102.33,1564.3432,103.4336,1569.8173,104.8599,1568.3909,110.334,1574.13,102.33" style="stroke:#181818;stroke-width:1.0;"/></g><!--reverse link System Configuration to Admin--><g id="link_System Configuration_Admin"><path d="M1798.9454,104.6297 C1777.9154,118.7197 1751.99,133.76 1722,143 C1668.28,159.55 1651.88,147.9 1596,154 C1440.96,170.94 1259.52,196.1 1163.88,209.78 " fill="none" id="System Configuration-backto-Admin" style="stroke:#181818;stroke-width:1.0;"/><polygon fill="#181818" points="1803.93,101.29,1794.2266,102.9764,1799.7761,104.0731,1798.6795,109.6226,1803.93,101.29" style="stroke:#181818;stroke-width:1.0;"/></g><!--reverse link Data Backup and Recovery to Admin--><g id="link_Data Backup and Recovery_Admin"><path d="M827.0543,105.9977 C851.0843,118.0377 876.85,130.55 905,143 C946.18,161.22 993.13,179.96 1030.29,194.33 " fill="none" id="Data Backup and Recovery-backto-Admin" style="stroke:#181818;stroke-width:1.0;"/><polygon fill="#181818" points="821.69,103.31,827.9447,110.9178,826.1603,105.5498,831.5283,103.7654,821.69,103.31" style="stroke:#181818;stroke-width:1.0;"/></g><!--reverse link Electric Vehicle Management System Configuration to Admin--><g id="link_Electric Vehicle Management System Configuration_Admin"><path d="M1097,125.21 C1097,144.24 1097,161.46 1097,180.77 " fill="none" id="Electric Vehicle Management System Configuration-backto-Admin" style="stroke:#181818;stroke-width:1.0;"/><polygon fill="#181818" points="1097,119.21,1093,128.21,1097,124.21,1101,128.21,1097,119.21" style="stroke:#181818;stroke-width:1.0;"/></g><!--link Admin to Announcement--><g id="link_Admin_Announcement"><path d="M1060.3,260.28 C1040.58,281.11 1021.2156,301.5735 1005.1356,318.5535 " fill="none" id="Admin-to-Announcement" style="stroke:#181818;stroke-width:1.0;"/><polygon fill="#181818" points="1001.01,322.91,1010.1028,319.1256,1004.448,319.2796,1004.2941,313.6248,1001.01,322.91" style="stroke:#181818;stroke-width:1.0;"/></g><!--link Admin to Profile--><g id="link_Admin_Profile"><path d="M1030.26,230.95 C983.97,238.99 921.63,252.85 870,275 C839.67,288.01 813.2135,306.125 793.0035,321.515 " fill="none" id="Admin-to-Profile" style="stroke:#181818;stroke-width:1.0;"/><polygon fill="#181818" points="788.23,325.15,797.8136,322.8798,792.2079,322.1208,792.9669,316.5151,788.23,325.15" style="stroke:#181818;stroke-width:1.0;"/></g><!--link Librarian to Resource Management--><g id="link_Librarian_Resource Management"><path d="M1581.03,467.89 C1650.13,467.17 1838.01,470.49 1983,522 C2015.63,533.59 2048.73,555.86 2070.4,572.18 " fill="none" id="Librarian-Resource Management" style="stroke:#181818;stroke-width:1.0;"/></g><!--link Librarian to Borrowing Management--><g id="link_Librarian_Borrowing Management"><path d="M1581.31,473.08 C1620.94,480.3 1696.19,496.24 1756,522 C1787.16,535.42 1819.79,556.51 1841.93,572.04 " fill="none" id="Librarian-Borrowing Management" style="stroke:#181818;stroke-width:1.0;"/></g><!--link Librarian to Inventory Inquiry--><g id="link_Librarian_Inventory Inquiry"><path d="M1581.02,499.98 C1601.51,523.85 1628.88,555.74 1645.43,575.02 " fill="none" id="Librarian-Inventory Inquiry" style="stroke:#181818;stroke-width:1.0;"/></g><!--link Librarian to User Borrowing Records--><g id="link_Librarian_User Borrowing Records"><path d="M1526.96,500.3 C1508,522.6 1483.2,551.77 1466.72,571.16 " fill="none" id="Librarian-User Borrowing Records" style="stroke:#181818;stroke-width:1.0;"/></g><!--reverse link Announcement to Librarian--><g id="link_Announcement_Librarian"><path d="M1054.8891,360.4864 C1180.7091,387.2064 1441.45,442.59 1526.98,460.76 " fill="none" id="Announcement-backto-Librarian" style="stroke:#181818;stroke-width:1.0;"/><polygon fill="#181818" points="1049.02,359.24,1056.9927,365.0223,1053.9109,360.2787,1058.6546,357.1969,1049.02,359.24" style="stroke:#181818;stroke-width:1.0;"/></g><!--reverse link Profile to Librarian--><g id="link_Profile_Librarian"><path d="M802.6893,365.0572 C822.8393,375.3872 844.58,385.06 870,392 C1118.33,459.79 1433.27,466.24 1526.7,466.59 " fill="none" id="Profile-backto-Librarian" style="stroke:#181818;stroke-width:1.0;"/><polygon fill="#181818" points="797.35,362.32,803.5341,369.9853,801.7994,364.601,807.1837,362.8663,797.35,362.32" style="stroke:#181818;stroke-width:1.0;"/></g><!--link Teacher to Course Management--><g id="link_Teacher_Course Management"><path d="M740.44,468.79 C682.02,470.23 535.03,478.3 422,522 C390.32,534.25 358.4,557.09 337.99,573.35 " fill="none" id="Teacher-Course Management" style="stroke:#181818;stroke-width:1.0;"/></g><!--link Teacher to Student Management--><g id="link_Teacher_Student Management"><path d="M766,507.24 C766,528.88 766,554.93 766,572.39 " fill="none" id="Teacher-Student Management" style="stroke:#181818;stroke-width:1.0;"/></g><!--link Teacher to Assignment Management--><g id="link_Teacher_Assignment Management"><path d="M740.24,480.77 C718.4,491.32 686.37,507.13 659,522 C629.62,537.96 596.92,557.31 573.25,571.62 " fill="none" id="Teacher-Assignment Management" style="stroke:#181818;stroke-width:1.0;"/></g><!--link Teacher to Resource Access--><g id="link_Teacher_Resource Access"><path d="M740.46,470.91 C631.77,481.19 213.16,520.82 210,522 C178.67,533.72 148.22,558.14 129.79,574.8 " fill="none" id="Teacher-Resource Access" style="stroke:#181818;stroke-width:1.0;"/></g><!--link Teacher to Grade Entry--><g id="link_Teacher_Grade Entry"><path d="M791.54,470.29 C865.76,475.77 1080.24,493.7 1144,522 C1172.63,534.71 1199.25,560.11 1214.56,576.57 " fill="none" id="Teacher-Grade Entry" style="stroke:#181818;stroke-width:1.0;"/></g><!--reverse link Announcement to Teacher--><g id="link_Announcement_Teacher"><path d="M942.5409,367.1921 C899.1209,391.6221 830.46,430.24 791.61,452.09 " fill="none" id="Announcement-backto-Teacher" style="stroke:#181818;stroke-width:1.0;"/><polygon fill="#181818" points="947.77,364.25,937.9649,365.1771,943.4124,366.7018,941.8877,372.1493,947.77,364.25" style="stroke:#181818;stroke-width:1.0;"/></g><!--reverse link Profile to Teacher--><g id="link_Profile_Teacher"><path d="M766,369.72 C766,386.76 766,406.45 766,427.89 " fill="none" id="Profile-backto-Teacher" style="stroke:#181818;stroke-width:1.0;"/><polygon fill="#181818" points="766,363.72,762,372.72,766,368.72,770,372.72,766,363.72" style="stroke:#181818;stroke-width:1.0;"/></g><!--link Teacher to Discussion Forum Management--><g id="link_Teacher_Discussion Forum Management"><path d="M791.82,481.12 C813.74,491.88 846,507.81 874,522 C904.38,537.4 938.42,555.05 964.72,568.78 " fill="none" id="Teacher-Discussion Forum Management" style="stroke:#181818;stroke-width:1.0;"/></g><!--link Student to Course Management--><g id="link_Student_Course Management"><path d="M316,507.24 C316,529.03 316,555.27 316,572.73 " fill="none" id="Student-Course Management" style="stroke:#181818;stroke-width:1.0;"/></g><!--link Grade Inquiry to Student--><g id="link_Grade Inquiry_Student"><path d="M303.83,360.88 C305.78,377.8 308.94,405.21 311.55,427.86 " fill="none" id="Grade Inquiry-Student" style="stroke:#181818;stroke-width:1.0;"/></g><!--link Student to Resource Access--><g id="link_Student_Resource Access"><path d="M291.86,479.39 C270.01,489.55 237.17,505.57 210,522 C182.63,538.55 152.97,560.32 133.53,575.16 " fill="none" id="Student-Resource Access" style="stroke:#181818;stroke-width:1.0;"/></g><!--reverse link Profile to Student--><g id="link_Profile_Student"><path d="M727.6132,364.7325 C707.5132,374.5925 686.46,383.94 662,392 C544.4,430.74 397.57,454.65 340.38,463.08 " fill="none" id="Profile-backto-Student" style="stroke:#181818;stroke-width:1.0;"/><polygon fill="#181818" points="733,362.09,723.1582,362.4625,728.511,364.2921,726.6815,369.6449,733,362.09" style="stroke:#181818;stroke-width:1.0;"/></g><!--reverse link EV to Student--><g id="link_EV_Student"><path d="M492.7422,369.3306 C447.1422,394.4006 378.33,432.23 340.27,453.16 " fill="none" id="EV-backto-Student" style="stroke:#181818;stroke-width:1.0;"/><polygon fill="#181818" points="498,366.44,488.1862,367.2708,493.6185,368.8489,492.0404,374.2811,498,366.44" style="stroke:#181818;stroke-width:1.0;"/></g><!--link Visitor to Information Access--><g id="link_Visitor_Information Access"><path d="M1994.54,87.37 C2032.56,97.22 2118.64,121.38 2186,154 C2214.21,167.66 2239.1755,184.2876 2259.0355,198.6276 " fill="none" id="Visitor-to-Information Access" style="stroke:#181818;stroke-width:1.0;"/><polygon fill="#181818" points="2263.9,202.14,2258.9449,193.6284,2259.8463,199.213,2254.2617,200.1144,2263.9,202.14" style="stroke:#181818;stroke-width:1.0;"/></g><!--link Visitor to Resource Browsing--><g id="link_Visitor_Resource Browsing"><path d="M1994.56,107.31 C2015.83,134.3 2045.6361,172.0976 2064.7161,196.3076 " fill="none" id="Visitor-to-Resource Browsing" style="stroke:#181818;stroke-width:1.0;"/><polygon fill="#181818" points="2068.43,201.02,2066.0008,191.4754,2065.3351,197.093,2059.7175,196.4273,2068.43,201.02" style="stroke:#181818;stroke-width:1.0;"/></g><!--link Visitor to Registration Information--><g id="link_Visitor_Registration Information"><path d="M1955.49,114.87 C1949.53,124.16 1942.76,134.17 1936,143 C1920.67,163.03 1905.446,179.8629 1891.126,194.8429 " fill="none" id="Visitor-to-Registration Information" style="stroke:#181818;stroke-width:1.0;"/><polygon fill="#181818" points="1886.98,199.18,1896.0904,195.4384,1890.435,195.5657,1890.3076,189.9103,1886.98,199.18" style="stroke:#181818;stroke-width:1.0;"/></g><!--link Visitor to Contact Us--><g id="link_Visitor_Contact Us"><path d="M1957.7,121.18 C1952.03,129.76 1944.85,137.83 1936,143 C1901.03,163.46 1791.73,139.23 1754,154 C1726.59,164.73 1705.5355,184.1873 1691.0155,199.9473 " fill="none" id="Visitor-to-Contact Us" style="stroke:#181818;stroke-width:1.0;"/><polygon fill="#181818" points="1686.95,204.36,1695.99,200.4513,1690.3379,200.6828,1690.1064,195.0306,1686.95,204.36" style="stroke:#181818;stroke-width:1.0;"/></g><!--SRC=[XPNRRk8m48RlUGgBg_Q2LrW9ADsjj2kX7hZtEaDgDR7RiTCgMlNTT_0fTfq2Ly7_nnn-JmOkh4QsV1YDXPwjcrugQInoEbqoRlp9Wdlg88sCGdYEqWE80QKTsHxGQAMWSrGyZjXl-HSvIgwSchv5-H6uU0QV83od17PeG5aVrJyl5WZ2SjLsm9PRtVTQiIS3RCiDc2Nxjs3qkLehfGSbeATViBqsLghsshMM2HxTepvA2lQ7AzwwSmU6Oy_iEig9Kh03F4j1y3sqtZ6fbSDtXyLdKLhovfRIdR1KN59Mm-lg1nN0BUgEGWgDZRcUPNOzO0jAZ6ohbILts5e8C1NTw0z5VDNbH7Hmj4HGlNDv3b9thYdsYwkcExasdo7QKpRj1gVks1-757HPc9jT4pHDlJJcLCLPBimlENAKxH0keyPkkELimyNByCgeAMVqE-0uWrRtFELd5xDzvtqfpnkNNehQl4bQhTZLFHWze83AcHBRQ4JzGTTtWRjJxwHe7DcTUXjaDAM4t8rD4Oj1pKXdOTNzLs2-__3Urzr7uLJ7bZetTUSv4fR4MMPDezMg_XAMdCxVj1puYRm1jbCskfR4UITAETylUTGRQSJWX_zMuz0NDNvPCQ7PUiC4uOnf2Q5YOYl52EGnPgt88vJj96NQDMNXuM-aBZmAyMMX-JngxFr6ofDNO2fnGrDgqjwQuQR5pRBet-1nspvHti__]--></g></svg>